<svg id="Capa_1" enable-background="new 0 0 512 512" height="512" viewBox="0 0 512 512" width="512" xmlns="http://www.w3.org/2000/svg"><g><g><path d="m173.682 76.595h30.11c0-19.692 15.964-35.656 35.656-35.656 2.383 0 3.98-2.449 3.028-4.634-8.468-19.432-30.722-28.82-53.739-28.82s-45.271 9.387-53.739 28.82c-.952 2.185.644 4.634 3.028 4.634 19.692 0 35.656 15.964 35.656 35.656z" fill="#d09080"/></g><g><g><path d="m242.476 36.305c-8.468-19.432-30.722-28.82-53.739-28.82-7.599 0-15.111 1.03-22.075 3.1 22.815 5.609 43.18 17.663 54.604 35.339 5.325-3.163 11.54-4.986 18.182-4.986 2.384.001 3.98-2.448 3.028-4.633z" fill="#c67d66"/></g></g><g><path d="m206.62 94.177h-36.422c-5.523 0-10-4.477-10-10v-13.035c0-5.523 4.477-10 10-10h36.422c5.523 0 10 4.477 10 10v13.036c0 5.522-4.477 9.999-10 9.999z" fill="#dd5790"/></g><g><path d="m206.64 61.142h-19.312c5.512 0 9.981 4.469 9.981 9.981v13.074c0 5.512-4.469 9.981-9.981 9.981h19.312c5.512 0 9.981-4.469 9.981-9.981v-13.075c-.001-5.512-4.469-9.98-9.981-9.98z" fill="#da387d"/></g><g><path d="m169.097 183.193h-142.596c-10.436 0-18.897-8.46-18.897-18.897v-48.733c0-37.644 30.517-68.161 68.161-68.161 22.076 0 43.503 7.472 60.792 21.199l32.539 25.836v88.756z" fill="#be694f"/></g><g><path d="m136.557 68.602c-17.289-13.727-38.716-21.199-60.792-21.199-5.371 0-10.59.641-15.603 1.815 15.313 2.976 29.79 9.571 42.149 19.384l32.54 25.836v88.755h34.246v-88.755z" fill="#aa593d"/></g><g><path d="m210.373 183.193h142.596c10.436 0 18.897-8.46 18.897-18.897v-48.733c0-37.644-30.517-68.161-68.161-68.161-22.076 0-43.503 7.472-60.792 21.199l-32.539 25.836v88.756z" fill="#be694f"/></g><g><path d="m303.705 47.403c-4.895 0-9.754.388-14.548 1.11 31.821 5.752 55.964 33.573 55.964 67.051v48.733c0 10.436-8.46 18.897-18.897 18.897h26.744c10.436 0 18.897-8.46 18.897-18.897v-48.733c.001-37.645-30.516-68.161-68.16-68.161z" fill="#aa593d"/></g><g><path d="m265.98 298.049h-154.486c-35.096 0-63.547-28.451-63.547-63.547v-81.768c0-35.096 28.451-63.547 63.547-63.547h154.486c35.096 0 63.547 28.451 63.547 63.547v81.768c0 35.096-28.451 63.547-63.547 63.547z" fill="#d09080"/></g><g><path d="m266.103 89.187h-40.343c35.028 0 63.424 28.396 63.424 63.424v82.013c0 35.028-28.396 63.424-63.424 63.424h40.343c35.028 0 63.424-28.396 63.424-63.424v-82.013c0-35.028-28.396-63.424-63.424-63.424z" fill="#c67d66"/></g><g><path d="m380.15 391.577-181.06-64.713c-5.896-2.107-12.128 2.166-12.287 8.425-.073 2.865 1.194 5.6 3.427 7.397l82.169 66.138h107.751z" fill="#c1d5e4"/></g><g><path d="m345.611 379.232h-81.254l-64.897-52.236-.37-.132c-5.896-2.107-12.128 2.166-12.287 8.425-.073 2.865 1.194 5.6 3.427 7.397l82.169 66.138h107.751v-17.247z" fill="#98b9d3"/></g><g><path d="m188.737 176.382c-89.613 0-162.259 72.646-162.259 162.259v78.077c0 8.268 6.703 14.971 14.971 14.971h60.347c22.264 0 40.313-18.049 40.313-40.313v-80.758c0-25.752 20.876-46.628 46.628-46.628 25.752 0 46.628 20.876 46.628 46.628v32.611c0 22.264 18.049 40.313 40.313 40.313h75.318v-44.901c0-89.613-72.646-162.259-162.259-162.259z" fill="#be694f"/></g><g><g><path d="m188.737 176.382c-6.956 0-13.808.439-20.533 1.288 79.919 10.092 141.726 78.313 141.726 160.97v44.901h41.066v-44.901c0-89.613-72.646-162.258-162.259-162.258z" fill="#aa593d"/></g></g><g><path d="m194.797 260.7 25.794-29.935c7.154-8.302 1.255-21.17-9.704-21.17h-44.301c-10.959 0-16.857 12.868-9.704 21.17l25.794 29.935c3.192 3.704 8.93 3.704 12.121 0z" fill="#407093"/></g><g><path d="m210.941 209.595h-6.399c1.089 3.85.425 8.227-2.63 11.772l-25.84 29.989c-.244.283-.507.536-.778.776l7.394 8.581c3.185 3.697 8.912 3.697 12.098 0l25.84-29.989c7.14-8.286 1.253-21.129-9.685-21.129z" fill="#2b4d66"/></g><g><path d="m189.517 414.189 87.375-26.685c8.453-2.582 17.242-3.894 26.08-3.894h69.901c6.371 0 11.536 5.165 11.536 11.536v26.783c0 6.371-5.165 11.536-11.536 11.536h-180.478c-2.12 0-4.184-.684-5.885-1.951-6.479-4.823-4.719-14.965 3.007-17.325z" fill="#dae7ef"/></g><g><path d="m372.874 383.61h-5.633v21.151c0 6.371-5.165 11.536-11.536 11.536h-169.935c-4.347 3.926-4.505 11.313.74 15.219 1.701 1.267 3.765 1.951 5.885 1.951h180.479c6.371 0 11.536-5.165 11.536-11.536v-26.783c0-6.373-5.165-11.538-11.536-11.538z" fill="#c1d5e4"/></g><g><path d="m470.047 415.56c23.595-3.238 41.834-23.517 41.834-47.988 0-26.716-21.735-48.451-48.451-48.451-26.335 0-47.814 21.122-48.423 47.311-1.934-.233-3.884-.357-5.845-.357-11.3 0-22.005 3.843-30.631 10.909-1.788-.558-3.688-.859-5.657-.859h-14.393v-37.484c0-31.528-8.65-61.07-23.687-86.395 1.467-5.735 2.219-11.654 2.219-17.622v-43.946h15.956c14.547 0 26.382-11.835 26.382-26.382v-48.733c0-9.51-1.744-18.786-5.183-27.57-1.507-3.849-5.851-5.749-9.699-4.241-3.85 1.507-5.749 5.849-4.241 9.699 2.755 7.037 4.152 14.477 4.152 22.112v48.733c0 6.292-5.119 11.411-11.411 11.411h-15.956v-23.096c0-39.1-31.81-70.91-70.91-70.91h-27.651l9.114-7.237c15.901-12.624 35.837-19.576 56.139-19.576 13.963 0 27.592 4.858 38.378 13.678 3.2 2.617 7.916 2.145 10.533-1.056s2.144-7.916-1.056-10.533c-13.453-11.001-30.448-17.06-47.856-17.06-23.668 0-46.91 8.105-65.448 22.822l-14.151 11.236v-2.853c0-5.186-2.284-9.837-5.885-13.038 5.294-6.06 13.005-9.659 21.227-9.659 3.65 0 7.024-1.824 9.024-4.878 2.003-3.057 2.327-6.882.866-10.231-8.954-20.551-32.174-33.316-60.6-33.316s-51.646 12.765-60.601 33.314c-1.461 3.35-1.137 7.176.866 10.232 2 3.055 5.373 4.878 9.024 4.878 8.059 0 15.642 3.476 20.929 9.334-3.811 3.207-6.242 8.004-6.242 13.363v.748l-11.501-9.131c-18.536-14.717-41.779-22.822-65.447-22.822-41.711 0-75.647 33.935-75.647 75.647v48.733c0 14.547 11.836 26.382 26.383 26.382h13.96v43.946c0 5.973.752 11.879 2.217 17.611-15.326 25.933-23.686 55.757-23.686 86.406v78.077c0 12.382 10.074 22.457 22.457 22.457h60.347c26.356 0 47.798-21.442 47.798-47.798v-80.758c0-1.724.124-3.418.341-5.084h77.604c.217 1.666.341 3.36.341 5.084v18.587l-26.27-9.389c-5.023-1.795-10.649-1.065-15.047 1.95-4.4 3.017-7.107 8.001-7.242 13.333-.133 5.163 2.191 10.18 6.216 13.42l53.193 42.814-51.398 15.697s0 0-.001 0c-6.289 1.921-10.894 7.14-12.018 13.618-1.125 6.479 1.453 12.944 6.728 16.872 2.973 2.214 6.65 3.432 10.355 3.432h180.479c5.863 0 11.111-2.669 14.603-6.853l30.696 12.174c-2.057 5.37-3.195 11.191-3.195 17.276 0 6.636 1.32 13.069 3.922 19.123 1.634 3.797 6.034 5.552 9.835 3.921 3.797-1.634 5.553-6.036 3.92-9.834-1.795-4.176-2.706-8.62-2.706-13.211 0-18.461 15.02-33.481 33.481-33.481s33.48 15.02 33.48 33.481-15.019 33.48-33.48 33.48c-3.389 0-6.728-.503-9.926-1.494-3.948-1.219-8.143.985-9.367 4.934-1.223 3.949.985 8.142 4.934 9.367 4.636 1.437 9.466 2.165 14.359 2.165 26.716 0 48.451-21.735 48.451-48.451 0-24.473-18.24-44.752-41.835-47.99zm-6.617-81.468c18.461 0 33.48 15.019 33.48 33.48s-15.019 33.48-33.48 33.48-33.481-15.019-33.481-33.48 15.02-33.48 33.481-33.48zm-295.746-262.97c0-1.376 1.119-2.495 2.495-2.495h36.461c1.376 0 2.495 1.119 2.495 2.495v13.074c0 1.376-1.119 2.495-2.495 2.495h-36.461c-1.376 0-2.495-1.119-2.495-2.495zm-22.905-37.134c9.405-13.906 28.275-19.017 43.958-19.017s34.551 5.109 43.957 19.015c-12.219 1.938-23.123 9.073-29.784 19.67h-28.353c-6.66-10.587-17.572-17.727-29.778-19.668zm-118.278 141.719c-6.293 0-11.412-5.119-11.412-11.411v-48.733c0-33.457 27.219-60.676 60.676-60.676 20.302 0 40.239 6.952 56.138 19.576l9.115 7.237h-29.646c-39.1 0-70.91 31.81-70.91 70.91v23.096h-13.961zm108.122 134.911v80.758c0 18.101-14.726 32.827-32.827 32.827h-60.347c-4.128 0-7.486-3.358-7.486-7.486v-78.077c-.01-29.372 8.424-57.91 23.778-82.363 7.492-11.929 16.627-22.894 27.26-32.504 3.067-2.772 3.307-7.505.535-10.572-2.772-3.068-7.506-3.307-10.572-.535-7.14 6.452-13.656 13.467-19.532 20.934v-80.989c0-30.845 25.094-55.939 55.939-55.939h46.608c3.151 3.082 7.455 4.99 12.2 4.99h36.461c4.745 0 9.049-1.908 12.2-4.99h47.263c30.845 0 55.939 25.094 55.939 55.939v81.061c-15.719-19.919-35.801-36.239-58.787-47.518.372.027.742.057 1.121.057 8.46 0 15.318-6.858 15.318-15.318s-6.858-15.318-15.318-15.318-15.318 6.858-15.318 15.318c0 4.27 1.75 8.127 4.568 10.905-20.001-8.306-41.917-12.902-64.888-12.902-22.316 0-44.366 4.398-64.811 12.832 2.774-2.772 4.491-6.603 4.491-10.835 0-8.46-6.858-15.318-15.318-15.318s-15.318 6.858-15.318 15.318 6.858 15.318 15.318 15.318c.332 0 .656-.029.982-.05-3.324 1.628-6.598 3.366-9.813 5.214-3.585 2.059-4.82 6.636-2.759 10.219 2.06 3.584 6.636 4.822 10.219 2.759 23.318-13.403 49.947-20.487 77.009-20.487 85.342 0 154.773 69.431 154.773 154.774v37.415h-67.832c-18.101 0-32.827-14.726-32.827-32.827v-32.611c0-23.847-15.512-44.126-36.97-51.314l20.416-23.694c5.237-6.077 6.413-14.383 3.07-21.677s-10.404-11.824-18.426-11.824h-44.409c-8.023 0-15.083 4.53-18.426 11.824-3.342 7.293-2.166 15.6 3.071 21.677l20.416 23.694c-21.459 7.189-36.971 27.468-36.971 51.315zm54.114-54.617c-.229 0-.337-.126-.378-.173l-25.841-29.99c-2.003-2.325-1.228-4.738-.802-5.667.426-.93 1.748-3.091 4.816-3.091h44.409c3.069 0 4.391 2.162 4.817 3.091.426.93 1.201 3.342-.802 5.667l-25.841 29.99c-.041.047-.149.173-.378.173zm-33.599 34.562c6.844-11.423 19.341-19.088 33.599-19.088 14.257 0 26.754 7.665 33.599 19.088zm39.149 44.916c.171-1.316.994-1.881 2.284-1.566l31.358 11.208c.36 9.191 3.318 17.725 8.172 24.878l-41.175-33.142c-.415-.333-.653-.848-.639-1.378zm178.587 90.502h-180.479c-2.668-.139-3.399-3.706-.691-4.633h-.001l87.375-26.685c7.751-2.367 15.79-3.567 23.894-3.567h69.902c2.234 0 4.051 1.817 4.051 4.051v26.783c0 2.234-1.817 4.051-4.051 4.051zm52.854 7.183-33.832-13.418v-24.599c0-2.904-.673-5.647-1.842-8.111 5.568-3.888 12.173-5.989 19.108-5.989 2.721 0 5.409.344 8.021.986 5.527 17.637 20.889 30.956 39.63 33.528-12.509 1.716-23.507 8.219-31.085 17.603z"/><ellipse cx="353.362" cy="407.723" rx="9.442" ry="9.442" transform="matrix(.982 -.189 .189 .982 -70.728 74.181)"/></g></g></svg>