<svg id="Layer_1" enable-background="new 0 0 256 256" height="512" viewBox="0 0 256 256" width="512" xmlns="http://www.w3.org/2000/svg"><g><path d="m117.72 232.29-6.22-21.41 5.82-33.35c.68-3.9.96-7.86.83-11.81l-1.18-36.67h-.01l-17.07-6.99c-.01 36.46-57.71 36.46-57.71-.01l-17.08 7c0 .016-1.179 37.724-1.18 37.74-.1 3.09.05 6.18.45 9.24l4.51 34.85-7.441 31.539h99.191z" fill="#f2e1d6"/><path d="m95.52 120.28c-13.49 19.05-35.47 19.06-48.97 0l-4.37 1.77c0 36.47 57.7 36.47 57.71.01z" fill="#fc5d3d"/><path d="m32.231 235.824c-1.344-.318-2.175-1.665-1.858-3.008l5.105-21.594-4.662-36.025c-.353-2.696-.488-5.461-.4-8.195l.586-18.75c.043-1.38 1.203-2.452 2.577-2.42 1.38.043 2.464 1.197 2.42 2.577l-.586 18.752c-.08 2.453.041 4.954.361 7.391l4.721 36.481c.039.299.023.603-.046.896l-5.21 22.038c-.316 1.336-1.655 2.175-3.008 1.857zm1.585-94.99c-.026 0-.053 0-.08-.001-1.38-.043-2.464-1.197-2.42-2.577l.099-3.17c.043-1.38 1.188-2.457 2.577-2.42 1.38.043 2.464 1.197 2.42 2.577l-.099 3.17c-.042 1.353-1.152 2.421-2.497 2.421z" fill="#fff"/><path d="m230.602 137.474v4.61h-46.591v-4.61c0-4.71 3.377-8.649 7.847-9.491.581-.11 1.183-.17 1.804-.17h27.279c.621 0 1.233.06 1.814.18 4.47.842 7.847 4.771 7.847 9.481z" fill="#f0c020"/><path d="m181.585 200.669-42.236 36.905c-3.409 2.974-8.366 3.328-12.16.87l-9.469-6.151-6.212-21.417 5.817-33.351c.68-3.897.958-7.853.83-11.807l-1.184-36.665 4.795 1.993c6.748 2.833 11.391 9.155 12.049 16.46l5.271 57.967 26.455-21.467 1.143 1.183 13.023 13.528z" fill="#fc5d3d"/><path d="m51.17 100.86-11.01-1.84c-8.02-1.34-13.96-8.17-14.17-16.3l-.21-7.74c1.7 2.76 4.76 4.6 8.24 4.6h3.92c1.45 8.2 5.83 15.73 13.23 21.28z" fill="#7c7b7a"/><path d="m116.7 59.248c0 22.309.051 34.085-12.051 53.501-3.331-7.09-17.959-9.28-17.959-9.28v-.031c10.39-5.501 17.959-16.309 17.959-29.715v-3.96c0-7.451-5.389-13.809-12.739-15.031l-47.842-7.95c-3.477-.578-6.641 2.104-6.641 5.628v7.825h-3.402c-3.667 0-6.845 2.037-8.496 5.032l-.153-6.02c0-25.222 20.445-45.667 45.667-45.667 25.202.001 45.657 20.441 45.657 45.668z" fill="#7c7b7a"/><path d="m47.498 213.084h47.08v29.335h-47.08z" fill="#d6c0b4"/><path d="m181.413 142.084v11.453c0 5.498 1.715 10.586 4.64 14.778 3.221-1.934 5.727-2.039 9.719-.991l21.871 6.118 10.43-8.3c.791-.743 1.839-1.067 2.849-.981 1.458-3.249 2.277-6.841 2.277-10.624v-11.453c-10.795 0-40.985 0-51.786 0z" fill="#72c1e8"/><path d="m188.47 161.052c-1.207-3.106-1.303-5.45-1.303-8.193.003-.575.014-2.585.014-3.025 0-1.381 1.119-2.5 2.5-2.5h24.545c1.381 0 2.5 1.119 2.5 2.5s-1.119 2.5-2.5 2.5h-22.057c-.014 2.931.061 4.59.961 6.907.5 1.287-.137 2.736-1.424 3.236-1.287.499-2.736-.138-3.236-1.425zm37.238-8.719h-1.482c-1.381 0-2.5-1.119-2.5-2.5s1.119-2.5 2.5-2.5h1.482c1.381 0 2.5 1.119 2.5 2.5s-1.119 2.5-2.5 2.5z" fill="#c5e5ff"/><path d="m233.533 170.183-10.262 12.968c-.934 1.201-2.392 1.877-3.916 1.848l-25.888-.4-13.761 14.119-13.023-13.528 16.96-15.217c.867-.657 1.648-1.21 2.411-1.658 3.221-1.934 5.727-2.039 9.719-.991l21.871 6.118 10.43-8.3c.791-.743 1.839-1.067 2.849-.981 2.812.203 4.51 3.561 2.61 6.022z" fill="#ffb69f"/><path d="m214.155 109.333c0 2.082-.929 3.939-2.391 5.177h-8.913c-1.462-1.238-2.391-3.096-2.391-5.177 0-3.79 3.064-6.853 6.843-6.853 3.788 0 6.852 3.064 6.852 6.853z" fill="#fc5d3d"/><path d="m222.755 124.933v3.06c-.581-.12-1.193-.18-1.814-.18h-27.279c-.621 0-1.223.06-1.804.17v-3.05c0-5.752 4.66-10.423 10.423-10.423h10.042c5.762 0 10.432 4.671 10.432 10.423z" fill="#f0c020"/><path d="m28.882 210.876-7.443 31.543h-17.939l4.805-48.883.627-47.855c.08-6.078 3.779-11.522 9.401-13.835l6.765-2.783-1.18 37.73c-.097 3.087.054 6.177.451 9.24z" fill="#fc5d3d"/><g fill="#f0c020"><path d="m246.105 79.577c-3.961-1.309-8.051-2.453-10.348-12.345-2.115 9.112-5.504 10.745-10.348 12.345 7.9 2.61 9.092 6.933 10.348 12.345 2.165-9.33 5.745-10.824 10.348-12.345z"/><path d="m177.03 111.363c-3.961-1.309-8.051-2.453-10.348-12.345-2.115 9.112-5.504 10.745-10.348 12.345 7.9 2.61 9.092 6.933 10.348 12.345 2.165-9.33 5.746-10.825 10.348-12.345z"/><path d="m250.092 200.739c-3.961-1.309-8.051-2.453-10.348-12.345-2.115 9.112-5.504 10.745-10.348 12.345 7.9 2.61 9.092 6.933 10.348 12.345 2.165-9.33 5.746-10.825 10.348-12.345z"/></g><path d="m86.69 103.44v6.98c0 3.77 2.28 7.19 5.79 8.61l3.04 1.25c-13.49 19.05-35.47 19.06-48.97 0l3.04-1.25c3.49-1.42 5.79-4.84 5.79-8.61v-6.93c-1.47-.78-2.88-1.65-4.21-2.63-7.4-5.55-11.78-13.08-13.23-21.28h-3.92c-3.48 0-6.54-1.84-8.24-4.6-1.85-3.02-1.86-6.73-.25-9.71 1.65-3 4.83-5.03 8.49-5.03h3.41v-7.83c0-3.52 3.16-6.21 6.64-5.63l47.84 7.95c7.35 1.22 12.74 7.58 12.74 15.03v3.96c0 13.41-7.57 24.22-17.96 29.72z" fill="#ffb69f"/><path d="m71.04 93.8c5.396 0 10.229-3.333 12.14-8.4.497-1.361-.232-2.768-1.47-3.22-1.26-.48-2.75.21-3.22 1.46-1.16 3.09-4.15 5.16-7.45 5.16-3.31 0-6.3-2.07-7.44-5.15-.47-1.25-1.95-1.94-3.22-1.47-1.29.48-1.95 1.92-1.47 3.21 1.86 5.03 6.74 8.41 12.13 8.41z"/><path d="m55.396 69.321c1.381 0 2.5-1.119 2.5-2.5v-1.979c0-1.381-1.119-2.5-2.5-2.5s-2.5 1.119-2.5 2.5v1.979c0 1.381 1.119 2.5 2.5 2.5z"/><path d="m86.681 69.321c1.381 0 2.5-1.119 2.5-2.5v-1.979c0-1.381-1.119-2.5-2.5-2.5s-2.5 1.119-2.5 2.5v1.979c0 1.381 1.119 2.5 2.5 2.5z"/><path d="m71.038 79.549c1.381 0 2.5-1.119 2.5-2.5v-9.031c0-1.381-1.119-2.5-2.5-2.5s-2.5 1.119-2.5 2.5v9.031c0 1.381 1.119 2.5 2.5 2.5z"/><path d="m54.57 223.56c0 1.362 1.134 2.5 2.5 2.5 1.357 0 2.5-1.114 2.5-2.5 0-1.52-1.246-2.483-2.5-2.51-1.466-.031-2.5 1.243-2.5 2.51z"/><path d="m63.71 223.56c0 1.38 1.12 2.5 2.51 2.5 1.38 0 2.49-1.12 2.49-2.5s-1.11-2.5-2.49-2.5c-1.39 0-2.51 1.12-2.51 2.5z"/><circle cx="75.36" cy="223.56" r="2.5"/><path d="m82 223.56c0 1.355 1.109 2.5 2.5 2.5 1.349 0 2.5-1.106 2.5-2.5 0-1.336-1.074-2.499-2.5-2.5-1.35-.002-2.5 1.082-2.5 2.5z"/><path d="m94.578 244.919c1.381 0 2.5-1.119 2.5-2.5v-29.335c0-1.381-1.119-2.5-2.5-2.5h-47.08c-1.381 0-2.5 1.119-2.5 2.5v29.335c0 1.381 1.119 2.5 2.5 2.5s2.5-1.119 2.5-2.5v-26.835h42.08v26.835c0 1.381 1.119 2.5 2.5 2.5z"/><path d="m61.26 17.19c1.34-.31 2.18-1.65 1.87-3-.32-1.352-1.646-2.169-2.99-1.87h-.01c-1.349.311-2.182 1.647-1.87 3 .325 1.424 1.757 2.196 3 1.87z"/><path d="m157.63 224.92c1.03-.907 1.154-2.459.23-3.53-.87-.99-2.52-1.11-3.52-.23-1.04.9-1.15 2.48-.24 3.52.877 1.027 2.462 1.168 3.53.24z"/><path d="m224.575 82.103c6.686 2.209 7.444 5.476 8.591 10.421.637 2.743 4.545 2.742 5.182 0 1.905-8.212 4.709-9.139 8.591-10.421 2.424-.801 2.43-4.249 0-5.051-3.729-1.228-6.641-2.022-8.591-10.421-.635-2.737-4.548-2.73-5.181 0-1.907 8.213-4.566 9.092-8.591 10.422-2.425.8-2.43 4.247-.001 5.05zm11.192-7.103c1.2 2.161 2.566 3.592 3.978 4.601-1.472 1.035-2.794 2.423-3.934 4.439-.942-1.587-2.25-3.089-4.164-4.403 1.548-1.061 2.934-2.503 4.12-4.637z"/><path d="m155.501 113.888c6.686 2.209 7.444 5.476 8.591 10.421.637 2.743 4.545 2.742 5.182 0 1.905-8.212 4.709-9.139 8.591-10.421 2.424-.801 2.43-4.249 0-5.051-3.729-1.228-6.642-2.022-8.591-10.421-.635-2.737-4.548-2.73-5.181 0-1.907 8.213-4.566 9.091-8.591 10.422-2.425.8-2.431 4.248-.001 5.05zm11.192-7.102c1.2 2.161 2.566 3.591 3.977 4.601-1.472 1.035-2.794 2.423-3.934 4.439-.942-1.587-2.25-3.089-4.164-4.403 1.548-1.062 2.934-2.503 4.121-4.637z"/><path d="m242.335 187.792c-.635-2.737-4.548-2.73-5.181 0-1.907 8.213-4.566 9.092-8.591 10.422-2.424.801-2.43 4.248 0 5.051 6.686 2.209 7.444 5.476 8.591 10.421.637 2.743 4.545 2.742 5.182 0 1.905-8.212 4.709-9.139 8.591-10.421 2.424-.801 2.43-4.249 0-5.051-3.73-1.229-6.642-2.023-8.592-10.422zm-2.538 17.41c-.942-1.587-2.25-3.089-4.164-4.403 1.549-1.062 2.934-2.504 4.121-4.638 1.2 2.161 2.566 3.591 3.977 4.601-1.471 1.036-2.793 2.424-3.934 4.44z"/><path d="m3.503 244.919c1.271 0 2.358-.964 2.485-2.255l4.805-48.883c.007-.07.011-.141.012-.212l.627-47.854c.066-5.085 3.148-9.621 7.852-11.556l3.197-1.315-.771 24.776c-.064 1.422 1.098 2.58 2.49 2.58 1.36 0 2.46-1.06 2.5-2.42l.85-27.03 12.31-5.05c3.664 34.958 58.684 34.916 62.35.01l12.31 5.04 1.13 35.05c.116 3.467-.136 7.508-.79 11.3l-5.82 33.35c-.07.37-.05.76.06 1.13 7.462 25.682 5.464 18.78 9.13 31.53.376 1.342 1.807 2.099 3.09 1.71 1.293-.364 2.11-1.743 1.71-3.09l-1.071-3.701c2.435 1.581 3.12 2.025 3.871 2.511 4.753 3.083 10.949 2.6 15.16-1.08l9.11-7.96c1.03-.91 1.14-2.49.23-3.53-.87-.99-2.52-1.11-3.52-.23l-9.11 7.95c-2.525 2.214-6.264 2.521-9.15.66-.006-.004-8.684-5.646-8.69-5.65l-5.79-19.97 5.72-32.77c.631-3.66.985-7.938.86-12.32l-1.055-32.788 1.215.498c5.91 2.49 9.94 8 10.52 14.38l5.15 56.653-5.62 4.557c-1.062.858-1.246 2.448-.36 3.52.867 1.07 2.449 1.228 3.51.36 0 0 31.239-25.365 31.32-25.43l12.57 13.06.06.06-16.09 14.07c-1.04.9-1.15 2.49-.24 3.52.87 1 2.53 1.12 3.53.24l18.07-15.79c1.109-.981 1.109-2.631.16-3.62l-.197-.204 11.312-11.61 24.803.383c2.284.063 4.533-1.008 5.923-2.797l10.262-12.968c.006-.008.012-.016.019-.023 2.181-2.826 1.621-6.867-1.361-8.942 1.023-2.97 1.548-6.064 1.548-9.232v-11.453c0-1.381-1.119-2.5-2.5-2.5h-.1v-2.114c0-5.111-3.205-9.608-7.85-11.359v-1.181c0-5.819-3.876-10.752-9.184-12.362 1.4-3.78.224-7.861-2.724-10.363 1.315-1.839 2.496-4.608 1.818-8.276-.251-1.357-1.558-2.253-2.913-2.004-1.358.251-2.255 1.555-2.004 2.913.478 2.586-.761 4.369-1.608 5.25-7.05-1.014-12.532 5.876-10.089 12.479-5.307 1.607-9.187 6.543-9.187 12.364v1.172c-4.646 1.755-7.841 6.245-7.85 11.368v2.114h-.096c-1.381 0-2.5 1.119-2.5 2.5v11.453c0 4.978 1.293 9.786 3.74 14.057-.158.116-.535.388-.68.518l-15.271 13.701c-.863-.437-1.971-.373-2.743.256l-22.81 18.51-4.84-53.3c-.75-8.23-5.95-15.34-13.58-18.54-8.704-3.626-23.316-9.561-29.312-12.027-2.568-1.04-4.228-3.509-4.228-6.293v-3.897c4.19 1.005 11.461 3.393 13.2 7.288.832 1.769 3.322 1.963 4.38.26 12.483-19.999 12.43-32.446 12.43-54.82 0-25.793-20.556-48.17-48.63-48.17-1.419.021-2.49 1.181-2.47 2.53.01 1.331 1.094 2.47 2.52 2.47 24.17 0 43.58 18.789 43.58 43.73 0 20.207.056 31.454-9.78 48.47-2.909-2.854-7.522-4.768-11.43-5.92 8.683-6.62 14.16-17.001 14.16-28.64v-3.96c0-8.672-6.278-16.075-14.83-17.5-47.798-7.933-39.264-6.516-47.83-7.94-.01 0-.01 0-.01 0-4.817-.877-9.539 2.916-9.55 8.09v5.326h-.905c-2.133 0-4.286.577-6.145 1.664 0-17.085 9.957-32.097 24.48-39.08 1.24-.6 1.77-2.1 1.17-3.34-.58-1.2-2.12-1.75-3.33-1.17-16.363 7.877-27.32 24.513-27.32 43.44l.136 5.514c-1.601 3.459-1.498 7.475.279 10.837l.195 7.189c.24 9.3 7.08 17.16 16.25 18.7l10.483 1.751c.855.603 1.744 1.166 2.657 1.696v5.483c0 2.735-1.701 5.265-4.241 6.298-1.001.411-5.788 2.339-31.257 12.817-6.559 2.698-10.856 9.023-10.95 16.114l-.626 47.749-4.794 48.777c-.142 1.465 1.008 2.743 2.493 2.743zm203.798-139.939c2.4 0 4.354 1.953 4.354 4.353 0 .986-.332 1.926-.931 2.677h-6.833c-.599-.751-.931-1.691-.931-2.677-.001-2.4 1.947-4.353 4.341-4.353zm-5.021 12.03h10.04c4.02.009 7.93 3.08 7.93 8.3h-25.89c0-5.123 3.831-8.291 7.92-8.3zm-15.77 20.46c0-3.953 3.189-7.16 7.15-7.16h27.28c3.887 0 7.172 3.154 7.16 7.16v2.11h-41.59zm39.937 25.772-9.36 7.449-20.68-5.785c-3.343-.878-6.25-1.139-9.444.158-.003.001-.005.002-.008.003-1.996-3.503-3.042-7.449-3.042-11.53v-8.953h46.787v8.953c0 2.847-.507 5.624-1.51 8.273-.943.22-1.968.731-2.743 1.432zm-41.212 8.662c3.876-2.926 5.686-3.269 9.864-2.172l21.872 6.119c.818.229 1.675-.009 2.23-.452.123-.098 10.47-8.326 10.584-8.435.416-.391 1.149-.453 1.638-.009.405.372.62 1.059.138 1.691l-10.264 12.97c-.441.567-1.163.885-1.904.884l-25.888-.4c-.688-.02-1.35.263-1.829.755l-11.954 12.269-9.443-9.802zm-88.86-48.576.964.393c-1.686 30.93-50.921 30.97-52.608-.006l.962-.39c14.176 18.319 36.496 18.348 50.682.003zm-56.445-70.918c0-1.895 1.679-3.487 3.73-3.16l47.84 7.95c6.17 1.02 10.65 6.31 10.65 12.56v3.96c-.016 18.431-15.212 31.17-31.24 31.17-16.687 0-30.98-13.674-30.98-31.17 0-19.421 0-9.198 0-21.31zm-12.019 21.251c-1.336-2.182-1.407-4.941-.193-7.187 1.193-2.165 3.588-3.735 6.302-3.735h.907v10.983c0 1.149.05 2.271.15 3.357h-1.053c-2.508.001-4.806-1.299-6.113-3.418zm.579 8.999-.05-1.94c2.939 1.529 5.293 1.36 7.47 1.36 1.271 5.408 3.825 10.586 7.506 14.946l-2.846-.476c-6.82-1.13-11.9-6.98-12.08-13.89zm29.39 27.76v-3.03c8.665 3.442 17.996 3.235 26.31-.049v3.079c0 4.831 2.886 9.121 7.339 10.922l.012.005c-11.885 14.296-29.124 14.304-41.013 0 4.437-1.79 7.352-6.087 7.352-10.927z"/><path d="m23.9 170.2c1.35 0 2.47-1.11 2.5-2.46.02-1.369-1.074-2.54-2.51-2.54-1.35 0-2.47 1.1-2.49 2.45-.021 1.383 1.088 2.55 2.5 2.55z"/><path d="m20.87 244.85c1.185.328 2.67-.411 3-1.86l7.44-31.54c.07-.29.09-.6.05-.89l-4.3-33.22c-.17-1.35-1.45-2.33-2.8-2.16-1.307.179-2.334 1.357-2.16 2.8l4.24 32.77-7.33 31.1c-.333 1.351.527 2.692 1.86 3z"/></g></svg>